#N canvas 0 50 600 498 10;
#X obj 29 256 bng 15 250 50 0 empty empty empty 17 7 0 10 -262144 -1
-1;
#X floatatom 522 263 5 0 0 0 - - -;
#X floatatom 54 81 5 0 0 0 - - -;
#X obj 43 129 sel 0;
#X obj 53 32 inlet;
#X obj 113 393 outlet~;
#N canvas 0 50 450 300 (subpatch) 0;
#X array \$0-clash1 436956 float 2;
#X coords 0 1 436956 -1 50 35 1 0 0;
#X restore 193 22 graph;
#X obj 119 16 loadbang;
#X obj 136 65 f \$0;
#X obj 143 130 soundfiler;
#N canvas 0 50 450 300 (subpatch) 0;
#X array \$0-clash3 439232 float 2;
#X coords 0 1 439232 -1 50 35 1 0 0;
#X restore 335 25 graph;
#N canvas 0 50 450 300 (subpatch) 0;
#X array \$0-clash2 445440 float 2;
#X coords 0 1 445440 -1 50 35 1 0 0;
#X restore 259 23 graph;
#X obj 101 47 bng 15 250 50 0 empty empty empty 17 7 0 10 -262144 -1
-1;
#X obj 32 285 tabplay~ \$0-clash1;
#X obj 158 255 bng 15 250 50 0 empty empty empty 17 7 0 10 -262144
-1 -1;
#X obj 285 254 bng 15 250 50 0 empty empty empty 17 7 0 10 -262144
-1 -1;
#X obj 161 284 tabplay~ \$0-clash2;
#X obj 288 283 tabplay~ \$0-clash3;
#X obj 16 158 bng 15 250 50 0 empty empty empty 17 7 0 10 -262144 -1
-1;
#X floatatom 399 407 5 0 0 0 - - -;
#X obj 53 191 moses 0.05;
#X obj 136 224 moses 0.1;
#X obj 486 371 noteout 10;
#X obj 518 301 bng 15 250 50 0 empty empty empty 17 7 0 10 -262144
-1 -1;
#X msg 547 337 100;
#X msg 504 332 49;
#X obj 366 160 random 3;
#X obj 366 137 bng 15 250 50 0 empty empty empty 17 7 0 10 -262144
-1 -1;
#X floatatom 366 181 5 0 0 0 - - -;
#X obj 366 201 sel 0 1 2;
#X obj 43 154 t f b;
#X msg 213 84 read -resize clash-p2.wav \$1-clash1 \, read -resize
clash-m.wav \$1-clash2 \, read -resize clash-f.wav \$1-clash3;
#X obj 467 321 s cl;
#X obj 156 351 *~ 1;
#X msg 254 323 1;
#X obj 259 359 * 1;
#X msg 293 308 0.5;
#X connect 0 0 13 0;
#X connect 0 0 34 0;
#X connect 1 0 35 0;
#X connect 2 0 3 0;
#X connect 3 1 30 0;
#X connect 4 0 2 0;
#X connect 7 0 8 0;
#X connect 8 0 31 0;
#X connect 12 0 8 0;
#X connect 13 0 33 0;
#X connect 14 0 16 0;
#X connect 14 0 34 0;
#X connect 15 0 17 0;
#X connect 15 0 36 0;
#X connect 16 0 33 0;
#X connect 17 0 33 0;
#X connect 20 0 0 0;
#X connect 20 1 21 0;
#X connect 21 0 14 0;
#X connect 21 1 15 0;
#X connect 23 0 25 0;
#X connect 23 0 24 0;
#X connect 23 0 32 0;
#X connect 24 0 22 1;
#X connect 25 0 22 0;
#X connect 26 0 28 0;
#X connect 27 0 26 0;
#X connect 28 0 29 0;
#X connect 29 0 0 0;
#X connect 29 1 14 0;
#X connect 29 2 15 0;
#X connect 30 0 1 0;
#X connect 30 1 27 0;
#X connect 30 1 23 0;
#X connect 31 0 9 0;
#X connect 33 0 5 0;
#X connect 34 0 35 1;
#X connect 35 0 19 0;
#X connect 35 0 33 1;
#X connect 36 0 35 1;
