#N canvas 0 50 672 449 10;
#X obj 50 26 inlet;
#X obj 50 48 bng 15 250 50 0 empty empty empty 17 7 0 10 -262144 -1
-1;
#X obj 50 70 f 0;
#X floatatom 50 92 5 0 0 0 - - -;
#X obj 50 128 sel 15;
#X msg 50 150 0;
#X obj 89 170 + 1, f 4;
#X obj 117 26 inlet;
#X floatatom 117 48 5 0 0 0 - - -;
#X obj 156 146 outlet;
#X obj 194 26 inlet;
#X floatatom 149 78 5 0 0 0 - - -;
#X connect 0 0 1 0;
#X connect 1 0 2 0;
#X connect 2 0 3 0;
#X connect 3 0 4 0;
#X connect 3 0 9 0;
#X connect 4 0 5 0;
#X connect 4 1 6 0;
#X connect 5 0 2 1;
#X connect 6 0 2 1;
#X connect 7 0 8 0;
#X connect 8 0 4 1;
#X connect 10 0 11 0;
#X connect 11 0 2 1;
