#N canvas 377 58 1273 805 10;
#X obj 166 599 outlet~;
#X msg 333 244 stop;
#X obj 295 107 t b f;
#X msg 300 175 stop;
#X obj 383 106 t b f;
#X obj 311 17 inlet;
#X obj 380 16 inlet;
#X obj 337 55 sel 0;
#X obj 401 63 sel 0;
#N canvas 0 50 450 300 (subpatch) 0;
#X array \$0-hihat-close-a 12876 float 2;
#X coords 0 1 12876 -1 50 35 1 0 0;
#X restore 488 24 graph;
#N canvas 0 50 450 300 (subpatch) 0;
#X array \$0-hihat-open-01 53647 float 2;
#X coords 0 1 53647 -1 50 35 1 0 0;
#X restore 489 85 graph;
#X obj 500 158 loadbang;
#X obj 533 184 f \$0;
#X obj 776 282 soundfiler;
#X obj 581 160 bng 15 250 50 0 empty empty empty 17 7 0 10 -262144
-1 -1;
#X floatatom 666 311 5 0 0 0 - - -;
#N canvas 0 50 450 300 (subpatch) 0;
#X array \$0-hihat-close-b 20288 float 2;
#X coords 0 1 20288 -1 50 35 1 0 0;
#X restore 546 35 graph;
#N canvas 0 50 450 300 (subpatch) 0;
#X array \$0-hihat-close-c 29568 float 2;
#X coords 0 1 29568 -1 50 35 1 0 0;
#X restore 602 50 graph;
#N canvas 0 50 450 300 (subpatch) 0;
#X array \$0-hihat-open-02 112640 float 2;
#X coords 0 1 112640 -1 50 35 1 0 0;
#X restore 546 102 graph;
#N canvas 0 50 450 300 (subpatch) 0;
#X array \$0-hihat-pedal 27074 float 2;
#X coords 0 1 27074 -1 50 35 1 0 0;
#X restore 604 111 graph;
#X obj 12 231 bng 15 250 50 0 empty empty empty 17 7 0 10 -262144 -1
-1;
#X obj 53 245 bng 15 250 50 0 empty empty empty 17 7 0 10 -262144 -1
-1;
#X obj 132 244 bng 15 250 50 0 empty empty empty 17 7 0 10 -262144
-1 -1;
#X obj -2 432 tabplay~ \$0-hihat-close-a;
#X obj 78 460 tabplay~ \$0-hihat-close-b;
#X obj 123 495 tabplay~ \$0-hihat-close-c;
#X msg 155 386 stop;
#X msg 21 333 stop;
#X msg 90 367 stop;
#X obj 358 314 tabplay~ \$0-hihat-open-01;
#X obj 370 374 tabplay~ \$0-hihat-open-02;
#X obj 403 196 random 2;
#X obj 394 217 sel 0;
#X obj 407 255 bng 15 250 50 0 empty empty empty 17 7 0 10 -262144
-1 -1;
#X obj 457 285 bng 15 250 50 0 empty empty empty 17 7 0 10 -262144
-1 -1;
#X floatatom 469 236 5 0 0 0 - - -;
#X msg 493 284 stop;
#X msg 411 284 stop;
#X obj 641 394 bng 15 250 50 0 empty empty empty 17 7 0 10 -262144
-1 -1;
#X floatatom 605 452 5 0 0 0 - - -;
#X floatatom 732 282 5 0 0 0 - - -;
#X obj 721 330 sel 0;
#X obj 720 353 t b f;
#X obj 731 233 inlet;
#N canvas 0 50 450 300 (subpatch) 0;
#X array \$0-pedal 27074 float 2;
#X coords 0 1 27074 -1 100 70 1 0 0;
#X restore 780 26 graph;
#X obj 838 284 loadbang;
#X obj 871 304 f \$0;
#X obj 831 370 soundfiler;
#X obj 921 272 bng 15 250 50 0 empty empty empty 17 7 0 10 -262144
-1 -1;
#X msg 797 334 read -resize hihat-pedal.wav \$1-pedal;
#X obj 442 445 tabplay~ \$0-pedal;
#X msg 597 412 stop;
#X msg 619 353 0.2;
#X floatatom 254 156 5 0 0 0 - - -;
#X msg 793 154 read -resize hihat-close-a.wav \$1-hihat-close-a \,
read -resize hihat-close-b.wav \$1-hihat-close-b \, read -resize hihat-close-c2.wav
\$1-hihat-close-c \, read -resize hihat-open01.wav \$1-hihat-open-01
\, read -resize hihat-open02.wav \$1-hihat-open-02 \, read -resize
hihat-pedal.wav \$1-hihat-pedal;
#X obj 120 98 noteout 10;
#X msg 138 59 42;
#X obj 152 28 bng 15 250 50 0 empty empty empty 17 7 0 10 -262144 -1
-1;
#X obj 231 51 bng 15 250 50 0 empty empty empty 17 7 0 10 -262144 -1
-1;
#X msg 231 71 46;
#X msg 181 64 100;
#X obj 705 561 noteout 10;
#X obj 712 478 t b f;
#X obj 706 505 bng 15 250 50 0 empty empty empty 17 7 0 10 -262144
-1 -1;
#X obj 705 561 noteout 10;
#X obj 712 478 t b f;
#X floatatom 745 509 5 0 0 0 - - -;
#X msg 709 531 42;
#X obj 787 445 t b f;
#X obj 781 472 bng 15 250 50 0 empty empty empty 17 7 0 10 -262144
-1 -1;
#X obj 787 445 t b f;
#X floatatom 833 502 5 0 0 0 - - -;
#X msg 784 498 46;
#X obj 697 449 * 512;
#X obj 738 409 * 512;
#X obj 897 448 t b f;
#X obj 891 475 bng 15 250 50 0 empty empty empty 17 7 0 10 -262144
-1 -1;
#X obj 897 448 t b f;
#X floatatom 943 505 5 0 0 0 - - -;
#X obj 827 414 * 512;
#X msg 894 501 39;
#X obj 157 558 *~ 1;
#X obj 630 285 / 0.48;
#X obj 651 532 s hh;
#X obj 65 144 moses 0.76;
#X obj 97 188 moses 0.84;
#X connect 1 0 29 0;
#X connect 1 0 30 0;
#X connect 2 0 1 0;
#X connect 2 1 53 0;
#X connect 2 1 82 0;
#X connect 2 1 84 0;
#X connect 3 0 23 0;
#X connect 3 0 24 0;
#X connect 3 0 25 0;
#X connect 4 0 3 0;
#X connect 4 0 29 0;
#X connect 4 0 31 0;
#X connect 4 1 82 0;
#X connect 5 0 7 0;
#X connect 6 0 8 0;
#X connect 7 1 2 0;
#X connect 7 1 73 0;
#X connect 8 1 4 0;
#X connect 8 1 74 0;
#X connect 11 0 12 0;
#X connect 12 0 54 0;
#X connect 14 0 12 0;
#X connect 20 0 23 0;
#X connect 20 0 26 0;
#X connect 21 0 24 0;
#X connect 21 0 27 0;
#X connect 21 0 51 0;
#X connect 22 0 25 0;
#X connect 22 0 28 0;
#X connect 22 0 51 0;
#X connect 23 0 81 0;
#X connect 24 0 81 0;
#X connect 25 0 81 0;
#X connect 26 0 24 0;
#X connect 26 0 25 0;
#X connect 27 0 23 0;
#X connect 27 0 25 0;
#X connect 28 0 24 0;
#X connect 28 0 23 0;
#X connect 29 0 81 0;
#X connect 30 0 81 0;
#X connect 31 0 32 0;
#X connect 31 0 35 0;
#X connect 32 0 33 0;
#X connect 32 1 34 0;
#X connect 33 0 29 0;
#X connect 33 0 37 0;
#X connect 33 0 51 0;
#X connect 34 0 30 0;
#X connect 34 0 36 0;
#X connect 34 0 51 0;
#X connect 36 0 29 0;
#X connect 37 0 30 0;
#X connect 38 0 50 0;
#X connect 38 0 1 0;
#X connect 38 0 3 0;
#X connect 39 0 81 1;
#X connect 40 0 41 0;
#X connect 41 1 42 0;
#X connect 42 0 38 0;
#X connect 42 1 39 0;
#X connect 42 1 79 0;
#X connect 43 0 40 0;
#X connect 45 0 46 0;
#X connect 46 0 49 0;
#X connect 48 0 46 0;
#X connect 49 0 47 0;
#X connect 50 0 81 0;
#X connect 51 0 50 0;
#X connect 52 0 39 0;
#X connect 52 0 38 0;
#X connect 54 0 13 0;
#X connect 56 0 55 0;
#X connect 57 0 56 0;
#X connect 57 0 60 0;
#X connect 58 0 59 0;
#X connect 58 0 60 0;
#X connect 59 0 55 0;
#X connect 60 0 55 1;
#X connect 62 0 63 0;
#X connect 62 1 66 0;
#X connect 63 0 67 0;
#X connect 63 0 83 0;
#X connect 66 0 61 1;
#X connect 67 0 61 0;
#X connect 68 0 69 0;
#X connect 68 1 71 0;
#X connect 69 0 72 0;
#X connect 69 0 83 0;
#X connect 71 0 61 1;
#X connect 72 0 61 0;
#X connect 73 0 62 0;
#X connect 74 0 68 0;
#X connect 75 0 76 0;
#X connect 75 1 78 0;
#X connect 76 0 80 0;
#X connect 76 0 83 0;
#X connect 78 0 61 1;
#X connect 79 0 75 0;
#X connect 80 0 61 0;
#X connect 81 0 0 0;
#X connect 82 0 15 0;
#X connect 82 0 81 1;
#X connect 84 0 20 0;
#X connect 84 1 85 0;
#X connect 85 0 21 0;
#X connect 85 1 22 0;
