#N canvas 202 53 1273 805 10;
#X obj 166 599 outlet~;
#X msg 306 246 stop;
#X obj 295 107 t b f;
#X msg 300 175 stop;
#X obj 383 106 t b f;
#X obj 311 17 inlet;
#X obj 380 16 inlet;
#X obj 337 55 sel 0;
#X obj 401 63 sel 0;
#N canvas 0 50 450 300 (subpatch) 0;
#X array \$0-hihat-close-a 12876 float 2;
#X coords 0 1 12876 -1 50 35 1 0 0;
#X restore 488 24 graph;
#N canvas 0 50 450 300 (subpatch) 0;
#X array \$0-hihat-open-01 53647 float 2;
#X coords 0 1 53647 -1 50 35 1 0 0;
#X restore 489 85 graph;
#X obj 951 81 loadbang;
#X obj 858 127 f \$0;
#X obj 806 252 soundfiler;
#X obj 914 66 bng 15 250 50 0 empty empty empty 17 7 0 10 -262144 -1
-1;
#X floatatom 578 282 5 0 0 0 - - -;
#N canvas 0 50 450 300 (subpatch) 0;
#X array \$0-hihat-close-b 20288 float 2;
#X coords 0 1 20288 -1 50 35 1 0 0;
#X restore 546 35 graph;
#N canvas 0 50 450 300 (subpatch) 0;
#X array \$0-hihat-close-c 29568 float 2;
#X coords 0 1 29568 -1 50 35 1 0 0;
#X restore 602 50 graph;
#N canvas 0 50 450 300 (subpatch) 0;
#X array \$0-hihat-open-02 112640 float 2;
#X coords 0 1 112640 -1 50 35 1 0 0;
#X restore 546 102 graph;
#N canvas 0 50 450 300 (subpatch) 0;
#X array \$0-hihat-pedal 27074 float 2;
#X coords 0 1 27074 -1 50 35 1 0 0;
#X restore 604 111 graph;
#X obj 12 231 bng 15 250 50 0 empty empty empty 17 7 0 10 -262144 -1
-1;
#X obj 53 245 bng 15 250 50 0 empty empty empty 17 7 0 10 -262144 -1
-1;
#X obj 132 244 bng 15 250 50 0 empty empty empty 17 7 0 10 -262144
-1 -1;
#X obj -2 432 tabplay~ \$0-hihat-close-a;
#X obj 78 460 tabplay~ \$0-hihat-close-b;
#X obj 123 495 tabplay~ \$0-hihat-close-c;
#X msg 155 386 stop;
#X msg 21 333 stop;
#X msg 90 367 stop;
#X obj 358 314 tabplay~ \$0-hihat-open-01;
#X obj 370 374 tabplay~ \$0-hihat-open-02;
#X obj 403 196 random 2;
#X obj 394 217 sel 0;
#X obj 377 252 bng 15 250 50 0 empty empty empty 17 7 0 10 -262144
-1 -1;
#X obj 443 247 bng 15 250 50 0 empty empty empty 17 7 0 10 -262144
-1 -1;
#X floatatom 469 236 5 0 0 0 - - -;
#X msg 466 278 stop;
#X msg 409 345 stop;
#X obj 562 371 bng 15 250 50 0 empty empty empty 17 7 0 10 -262144
-1 -1;
#X floatatom 605 452 5 0 0 0 - - -;
#X floatatom 667 222 5 0 0 0 - - -;
#X obj 672 247 sel 0;
#X obj 674 286 t b f;
#X obj 679 181 inlet;
#N canvas 0 50 450 300 (subpatch) 0;
#X array \$0-pedal 27074 float 2;
#X coords 0 1 27074 -1 100 70 1 0 0;
#X restore 780 26 graph;
#X obj 897 250 loadbang;
#X obj 935 302 f \$0;
#X obj 924 367 soundfiler;
#X obj 975 267 bng 15 250 50 0 empty empty empty 17 7 0 10 -262144
-1 -1;
#X msg 887 334 read -resize hihat-pedal.wav \$1-pedal;
#X obj 442 445 tabplay~ \$0-pedal;
#X msg 254 369 stop;
#X floatatom 254 156 5 0 0 0 - - -;
#X msg 793 154 read -resize hihat-close-a.wav \$1-hihat-close-a \,
read -resize hihat-close-b.wav \$1-hihat-close-b \, read -resize hihat-close-c2.wav
\$1-hihat-close-c \, read -resize hihat-open01.wav \$1-hihat-open-01
\, read -resize hihat-open02.wav \$1-hihat-open-02 \, read -resize
hihat-pedal.wav \$1-hihat-pedal;
#X obj 705 561 noteout 10;
#X obj 712 478 t b f;
#X obj 706 505 bng 15 250 50 0 empty empty empty 17 7 0 10 -262144
-1 -1;
#X obj 705 561 noteout 10;
#X obj 712 478 t b f;
#X floatatom 745 509 5 0 0 0 - - -;
#X msg 709 531 42;
#X obj 787 445 t b f;
#X obj 781 472 bng 15 250 50 0 empty empty empty 17 7 0 10 -262144
-1 -1;
#X obj 787 445 t b f;
#X floatatom 833 502 5 0 0 0 - - -;
#X msg 784 498 46;
#X obj 697 449 * 512;
#X obj 738 409 * 512;
#X obj 897 448 t b f;
#X obj 891 475 bng 15 250 50 0 empty empty empty 17 7 0 10 -262144
-1 -1;
#X obj 897 448 t b f;
#X floatatom 943 505 5 0 0 0 - - -;
#X obj 827 414 * 512;
#X msg 894 501 39;
#X obj 157 558 *~ 1;
#X obj 651 532 s hh;
#X obj 25 40 vsl 15 32 0 1 0 0 empty empty empty 0 -9 0 10 -262144
-1 -1 2500 1;
#X floatatom 26 106 5 0 0 0 - - -;
#X obj 107 10 vsl 15 32 40 200 0 0 empty empty empty 0 -9 0 10 -262144
-1 -1 1000 1;
#X obj 63 56 metro;
#X obj 57 34 tgl 15 0 empty empty empty 17 7 0 10 -262144 -1 -1 0 1
;
#X obj 68 92 bng 15 250 50 0 empty empty empty 17 7 0 10 -262144 -1
-1;
#X floatatom 112 82 5 0 0 0 - - -;
#X obj 115 53 expr 60*1000/$f1*4/8;
#X floatatom 554 526 5 0 0 0 - - -;
#X obj 562 252 * 0.65;
#X obj 65 144 moses 0.55;
#X obj 97 188 moses 0.75;
#X obj 560 493 * 2.4;
#X connect 1 0 29 0;
#X connect 1 0 30 0;
#X connect 2 0 1 0;
#X connect 2 1 52 0;
#X connect 2 1 85 0;
#X connect 2 1 86 0;
#X connect 3 0 23 0;
#X connect 3 0 24 0;
#X connect 3 0 25 0;
#X connect 4 0 3 0;
#X connect 4 0 29 0;
#X connect 4 0 31 0;
#X connect 4 1 85 0;
#X connect 5 0 7 0;
#X connect 6 0 8 0;
#X connect 7 1 2 0;
#X connect 7 1 66 0;
#X connect 8 1 4 0;
#X connect 8 1 67 0;
#X connect 11 0 12 0;
#X connect 12 0 53 0;
#X connect 14 0 12 0;
#X connect 20 0 23 0;
#X connect 20 0 26 0;
#X connect 21 0 24 0;
#X connect 21 0 27 0;
#X connect 21 0 51 0;
#X connect 22 0 25 0;
#X connect 22 0 28 0;
#X connect 22 0 51 0;
#X connect 23 0 74 0;
#X connect 24 0 74 0;
#X connect 25 0 74 0;
#X connect 26 0 24 0;
#X connect 26 0 25 0;
#X connect 27 0 23 0;
#X connect 27 0 25 0;
#X connect 28 0 24 0;
#X connect 28 0 23 0;
#X connect 29 0 74 0;
#X connect 30 0 74 0;
#X connect 31 0 32 0;
#X connect 31 0 35 0;
#X connect 32 0 33 0;
#X connect 32 1 34 0;
#X connect 33 0 29 0;
#X connect 33 0 37 0;
#X connect 33 0 51 0;
#X connect 34 0 30 0;
#X connect 34 0 36 0;
#X connect 34 0 51 0;
#X connect 36 0 29 0;
#X connect 37 0 30 0;
#X connect 38 0 50 0;
#X connect 38 0 1 0;
#X connect 38 0 3 0;
#X connect 39 0 88 0;
#X connect 40 0 41 0;
#X connect 41 1 42 0;
#X connect 42 0 38 0;
#X connect 42 1 39 0;
#X connect 42 1 72 0;
#X connect 43 0 40 0;
#X connect 45 0 46 0;
#X connect 46 0 49 0;
#X connect 48 0 46 0;
#X connect 49 0 47 0;
#X connect 50 0 74 0;
#X connect 51 0 50 0;
#X connect 53 0 13 0;
#X connect 55 0 56 0;
#X connect 55 1 59 0;
#X connect 56 0 60 0;
#X connect 56 0 75 0;
#X connect 59 0 54 1;
#X connect 60 0 54 0;
#X connect 61 0 62 0;
#X connect 61 1 64 0;
#X connect 62 0 65 0;
#X connect 62 0 75 0;
#X connect 64 0 54 1;
#X connect 65 0 54 0;
#X connect 66 0 55 0;
#X connect 67 0 61 0;
#X connect 68 0 69 0;
#X connect 68 1 71 0;
#X connect 69 0 73 0;
#X connect 69 0 75 0;
#X connect 71 0 54 1;
#X connect 72 0 68 0;
#X connect 73 0 54 0;
#X connect 74 0 0 0;
#X connect 76 0 77 0;
#X connect 77 0 7 0;
#X connect 78 0 83 0;
#X connect 79 0 81 0;
#X connect 80 0 79 0;
#X connect 81 0 77 0;
#X connect 82 0 79 1;
#X connect 83 0 82 0;
#X connect 85 0 15 0;
#X connect 85 0 74 1;
#X connect 86 0 20 0;
#X connect 86 1 87 0;
#X connect 87 0 21 0;
#X connect 87 1 22 0;
#X connect 88 0 74 1;
#X connect 88 0 84 0;
