#N canvas 754 115 493 360 10;
#X obj 36 12 inlet;
#X floatatom 182 278 5 0 0 0 - - -, f 5;
#X obj 76 198 line 0 1;
#X obj 162 308 outlet;
#X obj 84 84 route 0 1;
#X msg 92 140 \$1 \, \$2 \$3;
#X msg 109 35 1 0 127 1000;
#X floatatom 229 148 5 0 0 0 - - -, f 5;
#X floatatom 218 183 5 0 0 0 - - -, f 5;
#X floatatom 234 209 5 0 0 0 - - -, f 5;
#X msg 186 145 \$1;
#X msg 185 175 \$2;
#X msg 193 209 \$3;
#X obj 246 255 delay;
#X msg 246 287 0;
#X obj 285 280 bng 15 250 50 0 empty empty empty 17 7 0 10 -262144
-1 -1;
#X obj 217 232 + 1;
#X connect 0 0 4 0;
#X connect 1 0 3 0;
#X connect 2 0 1 0;
#X connect 4 1 5 0;
#X connect 4 1 10 0;
#X connect 4 1 11 0;
#X connect 4 1 12 0;
#X connect 5 0 2 0;
#X connect 6 0 4 0;
#X connect 10 0 7 0;
#X connect 11 0 8 0;
#X connect 12 0 9 0;
#X connect 12 0 16 0;
#X connect 13 0 15 0;
#X connect 14 0 3 0;
#X connect 15 0 14 0;
#X connect 16 0 13 0;
