#N canvas 1167 223 416 348 10;
#X obj 121 22 inlet;
#X floatatom 130 117 5 0 0 0 - - -, f 5;
#X floatatom 262 107 5 0 0 0 - - -, f 5;
#X obj 77 130 sel 0;
#X obj 202 104 sel 0;
#X floatatom 74 96 5 0 0 0 - - -, f 5;
#X obj 79 166 t b f;
#X obj 274 189 bng 15 250 50 0 empty empty empty 17 7 0 10 -262144
-1 -1;
#X floatatom 269 247 5 0 0 0 - - -, f 5;
#X msg 120 67 \$1;
#X obj 164 298 outlet;
#X obj 240 307 outlet;
#X obj 197 46 route 0 1;
#X obj 155 211 makenote 10 0;
#X msg 195 14 1 60 100 6000;
#X msg 166 88 \$2;
#X msg 225 74 \$3;
#X msg 320 110 0.88;
#X floatatom 187 146 5 0 0 0 - - -, f 5;
#X obj 161 167 pack f f f;
#X obj 182 124 + 0;
#X obj 266 142 - 8;
#X connect 0 0 12 0;
#X connect 1 0 19 0;
#X connect 2 0 21 0;
#X connect 3 1 6 0;
#X connect 4 1 2 0;
#X connect 5 0 3 0;
#X connect 6 1 1 0;
#X connect 9 0 5 0;
#X connect 12 1 16 0;
#X connect 12 1 9 0;
#X connect 12 1 15 0;
#X connect 12 1 13 0;
#X connect 13 0 10 0;
#X connect 13 1 8 0;
#X connect 13 1 11 0;
#X connect 14 0 12 0;
#X connect 15 0 20 0;
#X connect 16 0 4 0;
#X connect 17 0 21 1;
#X connect 18 0 19 1;
#X connect 19 0 7 0;
#X connect 20 0 18 0;
#X connect 21 0 19 2;
