#N canvas 50 12 1544 739 10;
#X obj 6 121 tgl 15 0 empty empty empty 17 7 0 10 -262144 -1 -1 0 1
;
#N canvas 0 50 1280 637 metronome 0;
#X obj 84 120 metro 100;
#X obj 64 41 tgl 15 0 empty empty empty 17 7 0 10 -262144 -1 -1 0 1
;
#X floatatom 161 27 5 0 0 2 bpm - -;
#X floatatom 232 158 5 0 0 0 - - -;
#X obj 125 157 f 0;
#X obj 128 182 + 1;
#X obj 127 203 sel 16;
#X msg 126 239 0;
#X floatatom 180 164 5 0 0 0 - - -;
#X obj 94 69 inlet;
#X floatatom 273 44 5 0 0 2 unit_per_line - -;
#X obj 219 36 inlet;
#X obj 337 62 inlet;
#X obj 62 177 outlet;
#X obj 214 121 expr 60*1000/$f1*4/$f2;
#X obj 252 92 t b f;
#X connect 0 0 13 0;
#X connect 1 0 0 0;
#X connect 2 0 14 0;
#X connect 3 0 0 1;
#X connect 4 0 5 0;
#X connect 4 0 8 0;
#X connect 5 0 6 0;
#X connect 6 0 7 0;
#X connect 6 1 4 1;
#X connect 7 0 4 1;
#X connect 9 0 0 0;
#X connect 10 0 15 0;
#X connect 11 0 14 0;
#X connect 12 0 15 0;
#X connect 14 0 3 0;
#X connect 15 0 14 0;
#X connect 15 1 14 1;
#X restore 15 317 pd metronome;
#X obj 50 119 bng 15 250 50 0 empty empty empty 17 7 0 10 -262144 -1
-1;
#X obj 149 115 textfile;
#X msg 3 71 rewind;
#X obj 60 93 bng 15 250 50 0 empty empty empty 17 7 0 10 -262144 -1
-1;
#X floatatom 30 255 5 0 0 0 - - -;
#X floatatom 74 255 5 0 0 0 - - -;
#X obj 30 275 sel 0;
#X obj 74 275 sel 0;
#X obj 12 358 kick;
#X obj 101 436 floor;
#X obj 93 396 tom1;
#X obj 40 402 hihat;
#X obj 116 456 clash;
#X obj 128 475 ride;
#X obj 16 140 t b;
#X obj 3 93 bng 15 250 50 0 empty empty empty 17 7 0 10 -262144 -1
-1;
#X obj 35 4 bng 15 250 50 0 empty empty empty 17 7 0 10 -262144 -1
-1;
#X obj 26 50 r rew;
#X obj 70 50 s rew;
#X obj 81 164 s rew;
#X obj 60 71 r stop;
#X obj 149 142 s stop;
#X obj 97 416 tom2;
#X obj 127 494 rim;
#X obj 24 380 snare2;
#X obj 10 30 delay 4000;
#X floatatom 74 297 5 0 0 0 - - -;
#X floatatom 30 297 5 0 0 0 - - -;
#X msg 71 4 start;
#X obj 187 574 pack f f f f;
#X obj 306 488 pack f f f f;
#X floatatom 306 532 5 0 0 0 - - -;
#X floatatom 182 628 5 0 0 0 - - -;
#X floatatom 170 506 5 0 0 0 - - -;
#X floatatom 210 502 5 0 0 0 - - -;
#X obj 171 448 pack f f f f;
#X obj 755 600 pack f f f f;
#X floatatom 685 558 5 0 0 0 - - -;
#X floatatom 770 643 5 0 0 0 - - -;
#X obj 240 635 bendout 1;
#X obj 170 526 noteout 1;
#X msg 33 230 0;
#X msg 82 234 1;
#X obj 522 160 s brush;
#X obj 33 190 r stick;
#X obj 82 190 r brush;
#X obj 535 119 s stick;
#X obj 43 212 bng 15 250 50 0 empty empty empty 17 7 0 10 -262144 -1
-1;
#X obj 82 212 bng 15 250 50 0 empty empty empty 17 7 0 10 -262144 -1
-1;
#X obj 506 593 pack f f f f;
#X obj 587 598 pack f f f f;
#X floatatom 587 642 5 0 0 0 - - -;
#X floatatom 506 637 5 0 0 0 - - -;
#X floatatom 492 539 5 0 0 0 - - -;
#X obj 457 471 pack f f f f;
#X obj 331 608 pack f f f f;
#X floatatom 331 652 5 0 0 0 - - -;
#X obj 81 144 delay 20;
#X obj 306 510 modctl;
#X obj 587 620 modctl;
#X obj 321 691 ctlout 1 17;
#X obj 306 565 ctlout 12 1;
#X obj 457 557 noteout 2;
#X obj 495 655 bendout 2;
#X obj 193 604 modctl;
#X obj 331 630 modctl;
#X obj 506 615 modctl;
#X floatatom 457 537 5 0 0 0 - - -;
#X obj 1172 47 ctlout 1 1;
#X obj 1172 69 ctlout 12 1;
#X obj 1172 91 bendout 1 1;
#X obj 1172 113 ctlout 1 2;
#X obj 1172 135 bendout 1 2;
#X msg 1204 8 0;
#X msg 1292 6 1;
#X msg 1292 28 2;
#X msg 1292 50 3;
#X msg 1292 72 4;
#N canvas 298 136 969 488 drum-mixer 0;
#X obj 9 6 inlet~;
#X obj 57 6 inlet~;
#X obj 105 6 inlet~;
#X obj 154 6 inlet~;
#X obj 203 6 inlet~;
#X obj 252 6 inlet~;
#X obj 301 6 inlet~;
#X obj 349 6 inlet~;
#X obj 6 309 outlet~;
#X obj 10 34 *~;
#X obj 267 107 vsl 15 128 0.01 1 0 0 empty empty ki 0 -9 0 10 -262144
-1 -1 12700 1;
#X obj 37 34 *~;
#X obj 64 34 *~;
#X obj 92 34 *~;
#X obj 118 34 *~;
#X obj 144 34 *~;
#X obj 171 34 *~;
#X obj 198 34 *~;
#X floatatom 47 252 5 0 0 0 - - -;
#X obj 269 53 r kick;
#X obj 298 107 vsl 15 128 0.01 1 0 0 empty empty sn 0 -9 0 10 -262144
-1 -1 12700 1;
#X floatatom 62 236 5 0 0 0 - - -;
#X obj 295 34 r snare;
#X obj 329 107 vsl 15 128 0.01 1 0 0 empty empty hh 0 -9 0 10 -262144
-1 -1 12700 1;
#X floatatom 86 252 5 0 0 0 - - -;
#X obj 318 53 r hihat;
#X obj 359 107 vsl 15 128 0.01 1 0 0 empty empty t1 0 -9 0 10 -262144
-1 -1 12700 1;
#X floatatom 104 238 5 0 0 0 - - -;
#X obj 351 33 r tom1;
#X obj 390 107 vsl 15 128 0.01 1 0 0 empty empty t2 0 -9 0 10 -262144
-1 -1 12700 1;
#X floatatom 126 252 5 0 0 0 - - -;
#X obj 375 53 r tom2;
#X obj 415 92 vsl 15 128 0.01 1 0 0 empty empty fl 0 -9 0 10 -262144
-1 -1 12700 1;
#X floatatom 144 238 5 0 0 0 - - -;
#X obj 405 32 r floor;
#X obj 452 107 vsl 15 128 0.01 1 0 0 empty empty rm 0 -9 0 10 -262144
-1 -1 12700 1;
#X floatatom 166 253 5 0 0 0 - - -;
#X obj 424 53 r rim;
#X obj 483 107 vsl 15 128 0.01 1 0 0 empty empty cl 0 -9 0 10 -262144
-1 -1 12700 1;
#X floatatom 184 238 5 0 0 0 - - -;
#X obj 461 29 r clash;
#X obj 515 107 vsl 15 128 0.01 1 0 0 empty empty rid 0 -9 0 10 -262144
-1 -1 12700 1;
#X floatatom 205 253 5 0 0 0 - - -;
#X obj 518 29 r ride;
#X obj 397 6 inlet~;
#X obj 226 34 *~;
#X obj 553 67 loadbang;
#X obj 669 46 bng 15 250 50 0 empty empty empty 17 7 0 10 -262144 -1
-1;
#X obj 70 309 outlet~;
#X obj 139 309 outlet~;
#X obj 375 309 outlet~;
#X obj 201 309 outlet~;
#X obj 257 309 outlet~;
#X obj 312 309 outlet~;
#X obj 442 309 outlet~;
#X msg 582 111 \; kick 0.55 \; snare 0.9 \; hihat 0.5 \; tom1 0.65
\; tom2 0.75 \; floor 0.7 \; rim 0.3 \; clash 0.3 \; ride 0.18 \;;
#X obj 697 58 bng 15 250 50 0 empty empty empty 17 7 0 10 -262144 -1
-1;
#X msg 666 110 \; kick 1 \; snare 1 \; hihat 1 \; tom1 1 \; tom2 1
\; floor 1 \; rim 1 \; clash 1 \; ride 1 \;;
#X connect 0 0 9 0;
#X connect 1 0 11 0;
#X connect 2 0 12 0;
#X connect 3 0 13 0;
#X connect 4 0 14 0;
#X connect 5 0 15 0;
#X connect 6 0 16 0;
#X connect 7 0 17 0;
#X connect 9 0 8 0;
#X connect 10 0 18 0;
#X connect 11 0 48 0;
#X connect 12 0 49 0;
#X connect 13 0 51 0;
#X connect 14 0 52 0;
#X connect 15 0 53 0;
#X connect 16 0 48 0;
#X connect 17 0 54 0;
#X connect 18 0 9 1;
#X connect 19 0 10 0;
#X connect 20 0 21 0;
#X connect 21 0 11 1;
#X connect 22 0 20 0;
#X connect 23 0 24 0;
#X connect 24 0 12 1;
#X connect 25 0 23 0;
#X connect 26 0 27 0;
#X connect 27 0 13 1;
#X connect 28 0 26 0;
#X connect 29 0 30 0;
#X connect 30 0 14 1;
#X connect 31 0 29 0;
#X connect 32 0 33 0;
#X connect 33 0 15 1;
#X connect 34 0 32 0;
#X connect 35 0 36 0;
#X connect 36 0 16 1;
#X connect 37 0 35 0;
#X connect 38 0 39 0;
#X connect 39 0 17 1;
#X connect 40 0 38 0;
#X connect 41 0 42 0;
#X connect 42 0 45 1;
#X connect 43 0 41 0;
#X connect 44 0 45 0;
#X connect 45 0 50 0;
#X connect 46 0 57 0;
#X connect 47 0 55 0;
#X connect 56 0 57 0;
#X restore 12 494 pd drum-mixer;
#X obj 1253 136 ctlout 7 17;
#X obj 1253 114 ctlout 1 17;
#X msg 245 136 read void_song_data2.txt cr \, rewind;
#X msg 247 60 read sunahamanite_data2.txt cr \, rewind;
#X obj 830 493 pack f f f f;
#X floatatom 830 537 5 0 0 0 - - -;
#X obj 932 586 pack f f f f;
#X floatatom 932 623 5 0 0 0 - - -;
#X floatatom 714 578 5 0 0 0 - - -;
#X obj 685 600 noteout 4;
#X obj 770 685 noteout 4, f 13;
#X obj 830 577 noteout 4, f 13;
#X obj 932 659 noteout 4, f 13;
#X obj 985 494 pack f f f f;
#X floatatom 985 534 5 0 0 0 - - -;
#X obj 985 515 modctl;
#X obj 985 554 ctlout 64 4;
#X obj 457 493 notectl;
#X obj 685 536 notectl;
#X obj 171 467 notectl;
#X obj 755 622 notectl;
#X obj 830 515 notectl;
#X obj 932 605 notectl;
#X obj 171 488 + 0;
#X msg 245 155 read azure_song2_data2.txt cr \, rewind;
#X msg 247 79 read august_song_data2.txt cr \, rewind;
#X msg 246 117 read makimodoki3_data2.txt cr \, rewind;
#X msg 245 174 read library_song_data2.txt cr \, rewind;
#X msg 247 98 read kozuenobudou_data2.txt cr \, rewind;
#X msg 245 193 read pool_data2.txt cr \, rewind;
#X obj 685 578 + 0;
#X obj 770 664 + 0;
#X obj 932 640 + 0;
#X obj 834 555 + 0;
#X msg 499 65 read runningaway_data2.txt cr \, rewind;
#X msg 808 177 read nonkinabokura_data2.txt cr \, rewind;
#X obj 1125 8 loadbang;
#X obj 1083 536 pack f f f f;
#X floatatom 1083 580 5 0 0 0 - - -;
#X obj 1083 558 notectl;
#X obj 1083 600 + 0;
#X floatatom 1122 580 5 0 0 0 - - -;
#X obj 1168 536 pack f f f f;
#X floatatom 1168 580 5 0 0 0 - - -;
#X obj 1168 558 notectl;
#X obj 1168 599 + 0;
#X floatatom 1207 580 5 0 0 0 - - -;
#X obj 1159 398 pack f f f f;
#X floatatom 1188 442 5 0 0 0 - - -;
#X obj 1188 420 notectl;
#X obj 1201 460 + 0;
#X floatatom 1227 443 5 0 0 0 - - -;
#X obj 160 216 unpack f f f f f f f f f f f f f f f f f f f f f f f
f f f f f f f f f f f f f f f f f f f f f f f f f f f f f f f f f f
f f f f f f f f f f f f f f f f f, f 156;
#X obj 1083 620 noteout 5, f 13;
#X obj 1177 621 noteout 6, f 13;
#X obj 1102 640 noteout 33;
#X obj 1175 657 noteout 34;
#X obj 170 545 noteout 17;
#X obj 241 597 vsl 15 32 -8191 8192 0 0 empty empty empty 0 -9 0 10
-262144 -1 -1 0 1;
#X obj 558 629 vsl 15 32 -8191 8192 0 0 empty empty empty 0 -9 0 10
-262144 -1 -1 0 1;
#X obj 353 527 vsl 15 32 0 127 0 0 empty empty empty 0 -9 0 10 -262144
-1 -1 0 1;
#X obj 366 652 vsl 15 32 0 127 0 0 empty empty empty 0 -9 0 10 -262144
-1 -1 0 1;
#X obj 641 625 vsl 15 32 0 127 0 0 empty empty empty 0 -9 0 10 -262144
-1 -1 0 1;
#X msg 248 41 read letter_song_data2.txt cr \, rewind;
#X obj 131 212 bng 15 250 50 0 empty empty empty 17 7 0 10 -262144
-1 -1;
#X msg 131 234 2;
#X obj 131 190 r snare2;
#X obj 177 84 s snare2;
#X obj 6 544 dac~ 1 2 3 4 5 6 7 8;
#X obj 222 468 r l-oc;
#X obj 1265 267 s l-oc;
#X msg 1261 186 0;
#X msg 1271 206 12;
#X msg 1281 227 -12;
#X obj 674 514 pack f f f f;
#X text 49 699 DRUMS;
#X text 238 669 SYNTH LEAD;
#X text 495 692 SYNTH BASS;
#X text 860 647 PIANO;
#X text 1103 670 VIOLIN;
#X text 1194 678 CELLO;
#X text 1232 502 FLUTE;
#X floatatom 812 645 5 0 0 0 - - -;
#X floatatom 881 540 5 0 0 0 - - -;
#X floatatom 985 633 5 0 0 0 - - -;
#X obj 49 664 r kick;
#X obj 29 664 bng 15 250 50 0 empty empty empty 17 7 0 10 -262144 -1
-1;
#X obj 45 646 bng 15 250 50 0 empty empty empty 17 7 0 10 -262144 -1
-1;
#X obj 45 625 r sn;
#X obj 18 635 bng 15 250 50 0 empty empty empty 17 7 0 10 -262144 -1
-1;
#X obj 15 614 r hh;
#X obj 47 608 bng 15 250 50 0 empty empty empty 17 7 0 10 -262144 -1
-1;
#X obj 47 587 r t1;
#X obj 80 609 bng 15 250 50 0 empty empty empty 17 7 0 10 -262144 -1
-1;
#X obj 80 588 r t2;
#X obj 90 648 bng 15 250 50 0 empty empty empty 17 7 0 10 -262144 -1
-1;
#X obj 90 627 r t3;
#X obj 115 670 bng 15 250 50 0 empty empty empty 17 7 0 10 -262144
-1 -1;
#X obj 115 649 r rd;
#X obj 125 611 bng 15 250 50 0 empty empty empty 17 7 0 10 -262144
-1 -1;
#X obj 125 590 r cl;
#X obj 1219 482 noteout 7, f 13;
#X obj 457 515 - 24;
#X msg 538 8 read no_title_song_data2.txt cr \, rewind;
#X msg 814 145 read gake_data2.txt cr \, rewind;
#X msg 821 194 read train_song_data2.txt cr \, rewind;
#X msg 820 38 read december_data2.txt cr \, rewind;
#X obj 117 10 key;
#X obj 126 86 bng 15 250 50 0 empty empty empty 17 7 0 10 -262144 -1
-1;
#X obj 155 6 spigot;
#X obj 217 7 tgl 15 0 empty empty empty 17 7 0 10 -262144 -1 -1 0 1
;
#X obj 251 8 sel 97 32 49 50 51 52 53 54 55 56 57 58 59;
#X msg 813 164 read tower_song_data2.txt cr \, rewind;
#X msg 823 83 read tsuta_song_data2.txt cr \, rewind;
#X msg 821 61 read primrose_day_data2.txt cr \, rewind;
#X msg 831 122 read at_lakeside1_data2.txt cr \, rewind;
#X msg 827 103 read at_lakeside2_data2.txt cr \, rewind;
#X msg 820 16 read etude_song_data2.txt cr \, rewind;
#X msg 527 32 read paranoid_data2.txt cr \, rewind;
#X msg 1068 160 read new-song_data2.txt cr \, rewind;
#X obj 598 702 ctlout 7 17;
#X obj 588 681 ctlout 11 1;
#X obj 665 633 vsl 15 32 0 1 0 0 empty empty empty 0 -9 0 10 -262144
-1 -1 0 1;
#X obj 621 663 *;
#X floatatom 693 684 5 0 0 0 - - -;
#X floatatom 691 709 5 0 0 0 - - -;
#X msg 689 629 0.15;
#X obj 1298 544 vsl 15 32 -8191 8192 0 0 empty empty empty 0 -9 0 10
-262144 -1 -1 0 1;
#X obj 1300 611 bendout 4;
#X obj 1301 632 bendout 5;
#X obj 1303 651 bendout 6;
#X floatatom 1270 588 8 0 0 0 - - -;
#X msg 1336 524 0;
#X msg 1326 514 -256;
#X connect 0 0 1 0;
#X connect 1 0 16 0;
#X connect 2 0 3 0;
#X connect 3 0 133 0;
#X connect 3 1 23 0;
#X connect 3 1 59 0;
#X connect 4 0 3 0;
#X connect 5 0 0 0;
#X connect 6 0 8 0;
#X connect 7 0 9 0;
#X connect 8 1 29 0;
#X connect 9 1 28 0;
#X connect 10 0 80 0;
#X connect 11 0 80 5;
#X connect 12 0 80 3;
#X connect 13 0 80 2;
#X connect 14 0 80 7;
#X connect 15 0 80 8;
#X connect 16 0 2 0;
#X connect 17 0 0 0;
#X connect 18 0 20 0;
#X connect 18 0 27 0;
#X connect 19 0 4 0;
#X connect 22 0 5 0;
#X connect 24 0 80 4;
#X connect 25 0 80 6;
#X connect 26 0 80 1;
#X connect 27 0 17 0;
#X connect 28 0 1 2;
#X connect 29 0 1 1;
#X connect 30 0 18 0;
#X connect 31 0 66 0;
#X connect 32 0 60 0;
#X connect 33 0 141 0;
#X connect 34 0 139 0;
#X connect 35 0 42 0;
#X connect 35 0 138 0;
#X connect 36 0 42 1;
#X connect 36 0 138 1;
#X connect 37 0 100 0;
#X connect 38 0 101 0;
#X connect 39 0 111 0;
#X connect 40 0 112 0;
#X connect 43 0 26 2;
#X connect 44 0 26 2;
#X connect 46 0 49 0;
#X connect 47 0 50 0;
#X connect 49 0 43 0;
#X connect 50 0 44 0;
#X connect 51 0 68 0;
#X connect 52 0 61 0;
#X connect 53 0 143 0;
#X connect 54 0 140 0;
#X connect 55 0 64 1;
#X connect 56 0 98 0;
#X connect 57 0 67 0;
#X connect 58 0 142 0;
#X connect 59 0 21 0;
#X connect 60 0 33 0;
#X connect 61 0 53 0;
#X connect 66 0 34 0;
#X connect 67 0 58 0;
#X connect 68 0 54 0;
#X connect 69 0 64 0;
#X connect 75 0 70 0;
#X connect 75 0 71 0;
#X connect 75 0 72 0;
#X connect 75 0 73 0;
#X connect 75 0 74 0;
#X connect 75 0 81 0;
#X connect 75 0 82 0;
#X connect 76 0 70 2;
#X connect 76 0 71 2;
#X connect 76 0 72 1;
#X connect 76 0 73 2;
#X connect 76 0 74 1;
#X connect 77 0 70 2;
#X connect 77 0 71 2;
#X connect 77 0 72 1;
#X connect 77 0 73 2;
#X connect 77 0 74 1;
#X connect 78 0 70 2;
#X connect 78 0 71 2;
#X connect 78 0 72 1;
#X connect 78 0 73 2;
#X connect 78 0 74 1;
#X connect 79 0 70 2;
#X connect 79 0 71 2;
#X connect 79 0 72 1;
#X connect 79 0 73 2;
#X connect 79 0 74 1;
#X connect 80 0 149 0;
#X connect 80 1 149 1;
#X connect 80 2 149 2;
#X connect 80 3 149 3;
#X connect 80 4 149 4;
#X connect 80 5 149 5;
#X connect 80 6 149 6;
#X connect 80 7 149 7;
#X connect 83 0 45 0;
#X connect 83 0 3 0;
#X connect 84 0 45 0;
#X connect 84 0 3 0;
#X connect 85 0 102 0;
#X connect 86 0 114 0;
#X connect 87 0 103 0;
#X connect 88 0 113 0;
#X connect 89 0 90 1;
#X connect 94 0 96 0;
#X connect 95 0 97 0;
#X connect 96 0 95 0;
#X connect 98 0 183 0;
#X connect 98 1 55 0;
#X connect 99 0 39 0;
#X connect 99 1 89 0;
#X connect 100 0 104 0;
#X connect 100 1 36 0;
#X connect 101 0 40 0;
#X connect 101 1 163 0;
#X connect 102 0 86 0;
#X connect 102 1 164 0;
#X connect 103 0 88 0;
#X connect 103 1 165 0;
#X connect 104 0 35 0;
#X connect 105 0 3 0;
#X connect 105 0 48 0;
#X connect 106 0 3 0;
#X connect 106 0 48 0;
#X connect 107 0 3 0;
#X connect 107 0 48 0;
#X connect 108 0 3 0;
#X connect 108 0 45 0;
#X connect 109 0 3 0;
#X connect 109 0 45 0;
#X connect 110 0 3 0;
#X connect 110 0 48 0;
#X connect 111 0 90 0;
#X connect 112 0 91 0;
#X connect 113 0 93 0;
#X connect 114 0 92 0;
#X connect 115 0 3 0;
#X connect 115 0 48 0;
#X connect 116 0 3 0;
#X connect 116 0 48 0;
#X connect 117 0 75 0;
#X connect 118 0 120 0;
#X connect 119 0 121 0;
#X connect 120 0 119 0;
#X connect 120 1 122 0;
#X connect 121 0 134 0;
#X connect 121 0 136 0;
#X connect 122 0 134 1;
#X connect 122 0 136 1;
#X connect 123 0 125 0;
#X connect 124 0 126 0;
#X connect 125 0 124 0;
#X connect 125 1 127 0;
#X connect 126 0 135 0;
#X connect 126 0 137 0;
#X connect 127 0 135 1;
#X connect 127 0 137 1;
#X connect 128 0 130 0;
#X connect 129 0 131 0;
#X connect 130 0 129 0;
#X connect 130 1 132 0;
#X connect 131 0 182 0;
#X connect 132 0 182 1;
#X connect 133 0 6 0;
#X connect 133 1 7 0;
#X connect 133 2 10 0;
#X connect 133 3 26 0;
#X connect 133 4 26 1;
#X connect 133 5 13 0;
#X connect 133 6 13 1;
#X connect 133 7 13 2;
#X connect 133 8 12 0;
#X connect 133 9 24 0;
#X connect 133 10 11 0;
#X connect 133 11 14 0;
#X connect 133 12 15 0;
#X connect 133 13 25 0;
#X connect 133 14 37 0;
#X connect 133 15 37 1;
#X connect 133 16 37 2;
#X connect 133 17 37 3;
#X connect 133 18 31 0;
#X connect 133 19 31 1;
#X connect 133 20 31 2;
#X connect 133 21 31 3;
#X connect 133 22 32 0;
#X connect 133 23 32 1;
#X connect 133 24 32 2;
#X connect 133 25 32 3;
#X connect 133 26 57 0;
#X connect 133 27 57 1;
#X connect 133 28 57 2;
#X connect 133 29 57 3;
#X connect 133 30 56 0;
#X connect 133 31 56 1;
#X connect 133 32 56 2;
#X connect 133 33 56 3;
#X connect 133 34 51 0;
#X connect 133 35 51 1;
#X connect 133 36 51 2;
#X connect 133 37 51 3;
#X connect 133 38 52 0;
#X connect 133 39 52 1;
#X connect 133 40 52 2;
#X connect 133 41 52 3;
#X connect 133 42 155 0;
#X connect 133 43 155 1;
#X connect 133 44 155 2;
#X connect 133 45 155 3;
#X connect 133 46 38 0;
#X connect 133 47 38 1;
#X connect 133 48 38 2;
#X connect 133 49 38 3;
#X connect 133 50 85 0;
#X connect 133 51 85 1;
#X connect 133 52 85 2;
#X connect 133 53 85 3;
#X connect 133 54 87 0;
#X connect 133 55 87 1;
#X connect 133 56 87 2;
#X connect 133 57 87 3;
#X connect 133 58 94 0;
#X connect 133 59 94 1;
#X connect 133 60 94 2;
#X connect 133 61 94 3;
#X connect 133 62 118 0;
#X connect 133 63 118 1;
#X connect 133 64 118 2;
#X connect 133 65 118 3;
#X connect 133 66 123 0;
#X connect 133 67 123 1;
#X connect 133 68 123 2;
#X connect 133 69 123 3;
#X connect 133 70 128 0;
#X connect 133 71 128 1;
#X connect 133 72 128 2;
#X connect 133 73 128 3;
#X connect 139 0 41 0;
#X connect 140 0 65 0;
#X connect 141 0 63 0;
#X connect 142 0 62 0;
#X connect 143 0 204 0;
#X connect 144 0 3 0;
#X connect 144 0 148 0;
#X connect 145 0 146 0;
#X connect 146 0 26 2;
#X connect 147 0 145 0;
#X connect 150 0 104 1;
#X connect 152 0 151 0;
#X connect 153 0 151 0;
#X connect 154 0 151 0;
#X connect 155 0 99 0;
#X connect 163 0 91 1;
#X connect 164 0 92 1;
#X connect 165 0 93 1;
#X connect 166 0 167 0;
#X connect 169 0 168 0;
#X connect 171 0 170 0;
#X connect 173 0 172 0;
#X connect 175 0 174 0;
#X connect 177 0 176 0;
#X connect 179 0 178 0;
#X connect 181 0 180 0;
#X connect 183 0 69 0;
#X connect 184 0 48 0;
#X connect 184 0 3 0;
#X connect 185 0 48 0;
#X connect 185 0 3 0;
#X connect 186 0 45 0;
#X connect 186 0 3 0;
#X connect 187 0 45 0;
#X connect 187 0 3 0;
#X connect 188 0 190 0;
#X connect 189 0 0 0;
#X connect 190 0 192 0;
#X connect 191 0 190 1;
#X connect 192 0 4 0;
#X connect 192 1 189 0;
#X connect 192 2 144 0;
#X connect 192 3 84 0;
#X connect 192 4 106 0;
#X connect 192 5 109 0;
#X connect 192 6 107 0;
#X connect 192 7 83 0;
#X connect 192 8 105 0;
#X connect 192 9 108 0;
#X connect 192 10 110 0;
#X connect 193 0 45 0;
#X connect 193 0 3 0;
#X connect 194 0 3 0;
#X connect 194 0 45 0;
#X connect 195 0 3 0;
#X connect 195 0 45 0;
#X connect 196 0 3 0;
#X connect 196 0 45 0;
#X connect 197 0 45 0;
#X connect 197 0 3 0;
#X connect 198 0 3 0;
#X connect 198 0 48 0;
#X connect 199 0 3 0;
#X connect 199 0 48 0;
#X connect 200 0 3 0;
#X connect 200 0 45 0;
#X connect 203 0 204 1;
#X connect 203 0 205 0;
#X connect 204 0 202 0;
#X connect 204 0 206 0;
#X connect 207 0 203 0;
#X connect 208 0 212 0;
#X connect 212 0 209 0;
#X connect 212 0 210 0;
#X connect 212 0 211 0;
#X connect 213 0 208 0;
#X connect 214 0 208 0;
