#N canvas 223 81 684 484 10;
#X obj 25 193 bng 15 250 50 0 empty empty empty 17 7 0 10 -262144 -1
-1;
#X floatatom 294 101 5 0 0 0 - - -;
#X floatatom 53 55 5 0 0 0 - - -;
#X obj 51 78 sel 0;
#X obj 48 98 t b f;
#X obj 53 32 inlet;
#X obj 93 411 outlet~;
#N canvas 0 50 450 300 (subpatch) 0;
#X array \$0-ride01 421888 float 2;
#X coords 0 1 421888 -1 50 35 1 0 0;
#X restore 193 22 graph;
#X obj 160 83 loadbang;
#X obj 193 103 f \$0;
#X obj 153 169 soundfiler;
#N canvas 0 50 450 300 (subpatch) 0;
#X array \$0-ride02 421888 float 2;
#X coords 0 1 421888 -1 50 35 1 0 0;
#X restore 264 35 graph;
#X obj 237 86 bng 15 250 50 0 empty empty empty 17 7 0 10 -262144 -1
-1;
#X obj 12 303 tabplay~ \$0-ride01;
#X obj 118 207 bng 15 250 50 0 empty empty empty 17 7 0 10 -262144
-1 -1;
#X obj 137 304 tabplay~ \$0-ride02;
#X msg 185 252 stop;
#X msg 72 240 stop;
#N canvas 0 50 450 300 (subpatch) 0;
#X array \$0-ride03 444416 float 2;
#X coords 0 1 444416 -1 50 35 1 0 0;
#X restore 347 52 graph;
#X msg 84 275 stop;
#X obj 267 304 tabplay~ \$0-ride03;
#X obj 226 206 bng 15 250 50 0 empty empty empty 17 7 0 10 -262144
-1 -1;
#X obj 39 132 moses 0.11;
#X msg 143 128 read -resize ride_tip02-2.wav \$1-ride01 \, read -resize
ride_tip02-2.wav \$1-ride02 \, read -resize ride_cup.wav \$1-ride03
;
#X obj 84 374 *~ 1;
#X obj 63 162 moses 0.35;
#X obj 546 334 noteout 10;
#X obj 553 251 t b f;
#X obj 547 278 bng 15 250 50 0 empty empty empty 17 7 0 10 -262144
-1 -1;
#X obj 546 334 noteout 10;
#X obj 553 251 t b f;
#X floatatom 599 308 5 0 0 0 - - -;
#X msg 550 304 42;
#X obj 532 222 * 800;
#X obj 479 315 s rd;
#X connect 0 0 13 0;
#X connect 0 0 16 0;
#X connect 2 0 3 0;
#X connect 3 1 4 0;
#X connect 4 1 1 0;
#X connect 4 1 22 0;
#X connect 4 1 33 0;
#X connect 5 0 2 0;
#X connect 8 0 9 0;
#X connect 9 0 23 0;
#X connect 12 0 9 0;
#X connect 13 0 24 0;
#X connect 14 0 15 0;
#X connect 14 0 17 0;
#X connect 15 0 24 0;
#X connect 16 0 20 0;
#X connect 16 0 15 0;
#X connect 17 0 20 0;
#X connect 17 0 13 0;
#X connect 19 0 15 0;
#X connect 19 0 13 0;
#X connect 20 0 24 0;
#X connect 21 0 19 0;
#X connect 21 0 20 0;
#X connect 22 0 0 0;
#X connect 22 1 25 0;
#X connect 23 0 10 0;
#X connect 24 0 6 0;
#X connect 25 0 14 0;
#X connect 25 1 21 0;
#X connect 27 0 28 0;
#X connect 27 1 31 0;
#X connect 28 0 32 0;
#X connect 28 0 34 0;
#X connect 31 0 26 1;
#X connect 32 0 26 0;
#X connect 33 0 27 0;
