#N canvas 0 0 1284 651 10;
#X floatatom 263 175 5 0 0 0 - - -;
#X floatatom 183 90 5 0 0 0 - - -;
#X obj 175 139 sel 0;
#X obj 116 65 inlet;
#X obj 319 574 outlet~;
#X obj 859 476 soundfiler;
#X obj 156 303 bng 15 250 50 0 empty empty empty 17 7 0 10 -262144
-1 -1;
#X obj 243 338 bng 15 250 50 0 empty empty empty 17 7 0 10 -262144
-1 -1;
#X obj 338 338 bng 15 250 50 0 empty empty empty 17 7 0 10 -262144
-1 -1;
#X obj 166 168 t f;
#X obj 182 364 *~ 0.5;
#X obj 210 220 moses 0.28;
#X obj 262 416 *~ 0.5;
#X obj 335 454 *~ 0.5;
#X obj 203 454 +~;
#X obj 302 502 +~;
#X floatatom 634 179 5 0 0 0 - - -;
#X floatatom 567 85 5 0 0 0 - - -;
#X obj 556 133 sel 0;
#X obj 532 31 inlet;
#X obj 476 264 bng 15 250 50 0 empty empty empty 17 7 0 10 -262144
-1 -1;
#X obj 564 315 bng 15 250 50 0 empty empty empty 17 7 0 10 -262144
-1 -1;
#X obj 696 328 bng 15 250 50 0 empty empty empty 17 7 0 10 -262144
-1 -1;
#X obj 555 156 t f;
#X obj 470 406 *~ 0.5;
#X obj 509 222 moses 0.28;
#X obj 600 420 *~ 0.5;
#X obj 668 442 *~ 0.5;
#X obj 465 449 +~;
#X obj 501 493 +~;
#X obj 350 528 +~;
#X obj 807 316 f \$0;
#X obj 802 269 bng 15 250 50 0 empty empty empty 17 7 0 10 -262144
-1 -1;
#X obj 984 189 table \$0-snare_forte_R;
#X obj 990 213 table \$0-snare_R;
#X obj 833 191 table \$0-snare_forte_L;
#X obj 839 215 table \$0-snare_L;
#X obj 844 238 table \$0-snare_piano_L;
#X obj 456 287 tabplay~ \$0-snare_piano_R;
#X obj 543 338 tabplay~ \$0-snare_R;
#X obj 642 367 tabplay~ \$0-snare_forte_R;
#X obj 575 255 moses 0.666;
#X obj 322 384 tabplay~ \$0-snare_forte_L;
#X obj 244 359 tabplay~ \$0-snare_L;
#X obj 176 319 tabplay~ \$0-snare_piano_L;
#X obj 741 281 loadbang;
#X obj 242 268 moses 0.666;
#X obj 380 415 * 1.5;
#X obj 995 236 table \$0-snare_piano_R;
#X obj 848 258 table \$0-snare_pp_L;
#X obj 999 256 table \$0-snare_pp_R;
#X obj 429 185 moses 0.2;
#X obj 339 198 bng 15 250 50 0 empty empty empty 17 7 0 10 -262144
-1 -1;
#X obj 406 305 *~ 0.5;
#X obj 431 412 +~;
#X obj 355 229 tabplay~ \$0-snare_pp_R;
#X obj 145 203 moses 0.2;
#X obj 123 231 bng 15 250 50 0 empty empty empty 17 7 0 10 -262144
-1 -1;
#X obj 99 366 *~ 0.5;
#X obj 97 279 tabplay~ \$0-snare_pp_L;
#X obj 183 411 +~;
#X obj 758 472 bng 15 250 50 0 empty empty empty 17 7 0 10 -262144
-1 -1;
#X obj 776 499 f \$0;
#X obj 995 289 table \$0-snare_ppp;
#X obj 48 221 bng 15 250 50 0 empty empty empty 17 7 0 10 -262144 -1
-1;
#X obj 71 196 moses 0.1;
#X obj 49 335 *~ 0.5;
#X obj 72 398 +~;
#X obj 37 256 tabplay~ \$0-snare_ppp;
#X msg 817 498 read -resize brush_f01.wav \$1-snare_forte_R \, read
-resize brush_m01.wav \$1-snare_R \, read -resize brush_p01.wav \$1-snare_piano_R
\, read -resize brush_pp01.wav \$1-snare_pp_R \, read -resize brush_f02.wav
\$1-snare_forte_L \, read -resize brush_m02.wav \$1-snare_L \, read
-resize brush_p02.wav \$1-snare_piano_L \, read -resize brush_pp03.wav
\$1-snare_pp_L \, read -resize brush_pp01.wav \$1-snare_ppp;
#X msg 819 363 read -resize snare_r_f.wav \$1-snare_forte_R \, read
-resize snare_r_m.wav \$1-snare_R \, read -resize snare_r_p.wav \$1-snare_piano_R
\, read -resize snare_r_p.wav \$1-snare_pp_R \, read -resize snare_l_f.wav
\$1-snare_forte_L \, read -resize snare_l_m.wav \$1-snare_L \, read
-resize snare_l_p.wav \$1-snare_piano_L \, read -resize snare_l_p.wav
\$1-snare_pp_L \, read -resize snare_l_p.wav \$1-snare_ppp;
#X obj 747 106 inlet;
#X obj 728 172 sel 0;
#X obj 699 395 * 1.5;
#X obj 58 568 noteout 10;
#X msg 65 535 38;
#X obj 104 454 * 127;
#X obj 65 485 t b f;
#X floatatom 85 515 5 0 0 0 - - -;
#X obj 60 512 bng 15 250 50 0 empty empty empty 17 7 0 10 -262144 -1
-1;
#X obj 789 32 bng 15 250 50 0 empty empty empty 17 7 0 10 -262144 -1
-1;
#X obj 807 59 f \$0;
#X msg 841 85 read -resize snare2_f.wav \$1-snare_forte_R \, read -resize
snare2_m.wav \$1-snare_R \, read -resize snare2_p.wav \$1-snare_piano_R
\, read -resize snare2_p.wav \$1-snare_pp_R \, read -resize snare2_f.wav
\$1-snare_forte_L \, read -resize snare2_m.wav \$1-snare_L \, read
-resize snare2_p.wav \$1-snare_piano_L \, read -resize snare2_p.wav
\$1-snare_pp_L \, read -resize snare2_p.wav \$1-snare_ppp;
#X obj 314 42 tgl 15 0 empty empty empty 17 7 0 10 -262144 -1 -1 0
1;
#X obj 318 97 f 0;
#X floatatom 316 126 5 0 0 0 - - -;
#X obj 316 146 sel 100;
#X obj 276 141 / 100;
#X msg 380 98 0;
#X obj 331 169 + 1;
#X obj 581 551 bng 15 250 50 0 empty empty empty 17 7 0 10 -262144
-1 -1;
#X floatatom 600 599 5 0 0 0 - - -;
#X obj 600 576 counter 1 1 1;
#X obj 600 620 % 2;
#X floatatom 600 641 5 0 0 0 - - -;
#X obj 602 660 sel 1;
#X obj 587 689 bng 15 250 50 0 empty empty empty 17 7 0 10 -262144
-1 -1;
#X obj 628 688 bng 15 250 50 0 empty empty empty 17 7 0 10 -262144
-1 -1;
#X obj 244 96 spigot;
#X obj 269 60 tgl 15 0 empty empty empty 17 7 0 10 -262144 -1 -1 1
1;
#X obj 436 97 spigot;
#X obj 461 61 tgl 15 0 empty empty empty 17 7 0 10 -262144 -1 -1 0
1;
#X msg 277 36 0;
#X msg 416 35 0;
#X obj 314 72 metro 120;
#X obj 769 203 sel 1;
#X obj 13 547 s sn;
#X connect 1 0 2 0;
#X connect 2 1 9 0;
#X connect 3 0 1 0;
#X connect 6 0 44 0;
#X connect 7 0 43 0;
#X connect 8 0 42 0;
#X connect 9 0 0 0;
#X connect 9 0 65 0;
#X connect 9 0 76 0;
#X connect 10 0 60 1;
#X connect 11 0 6 0;
#X connect 11 0 10 1;
#X connect 11 1 46 0;
#X connect 12 0 14 1;
#X connect 13 0 15 1;
#X connect 14 0 15 0;
#X connect 15 0 30 0;
#X connect 17 0 18 0;
#X connect 18 1 23 0;
#X connect 19 0 17 0;
#X connect 20 0 38 0;
#X connect 21 0 39 0;
#X connect 22 0 40 0;
#X connect 23 0 16 0;
#X connect 23 0 51 0;
#X connect 23 0 76 0;
#X connect 24 0 54 1;
#X connect 25 0 20 0;
#X connect 25 0 24 1;
#X connect 25 1 41 0;
#X connect 26 0 28 1;
#X connect 27 0 29 1;
#X connect 28 0 29 0;
#X connect 29 0 30 1;
#X connect 30 0 4 0;
#X connect 31 0 70 0;
#X connect 32 0 31 0;
#X connect 38 0 24 0;
#X connect 39 0 26 0;
#X connect 40 0 27 0;
#X connect 41 0 21 0;
#X connect 41 0 26 1;
#X connect 41 1 22 0;
#X connect 41 1 73 0;
#X connect 42 0 13 0;
#X connect 43 0 12 0;
#X connect 44 0 10 0;
#X connect 45 0 31 0;
#X connect 46 0 7 0;
#X connect 46 0 12 1;
#X connect 46 1 8 0;
#X connect 46 1 47 0;
#X connect 47 0 13 1;
#X connect 51 0 52 0;
#X connect 51 0 53 1;
#X connect 51 1 25 0;
#X connect 52 0 55 0;
#X connect 53 0 54 0;
#X connect 54 0 28 0;
#X connect 55 0 53 0;
#X connect 56 0 57 0;
#X connect 56 0 58 1;
#X connect 56 1 11 0;
#X connect 57 0 59 0;
#X connect 58 0 67 1;
#X connect 59 0 58 0;
#X connect 60 0 14 0;
#X connect 61 0 62 0;
#X connect 62 0 69 0;
#X connect 64 0 68 0;
#X connect 65 0 64 0;
#X connect 65 0 66 1;
#X connect 65 1 56 0;
#X connect 66 0 67 0;
#X connect 67 0 60 0;
#X connect 68 0 66 0;
#X connect 69 0 5 0;
#X connect 70 0 5 0;
#X connect 71 0 72 0;
#X connect 72 0 32 0;
#X connect 72 1 105 0;
#X connect 73 0 27 1;
#X connect 75 0 74 0;
#X connect 76 0 77 0;
#X connect 77 0 79 0;
#X connect 77 1 78 0;
#X connect 78 0 74 1;
#X connect 79 0 75 0;
#X connect 79 0 106 0;
#X connect 80 0 81 0;
#X connect 81 0 82 0;
#X connect 82 0 5 0;
#X connect 83 0 104 0;
#X connect 84 0 85 0;
#X connect 85 0 86 0;
#X connect 86 0 88 0;
#X connect 86 1 87 0;
#X connect 86 1 89 0;
#X connect 87 0 98 0;
#X connect 87 0 100 0;
#X connect 88 0 84 1;
#X connect 89 0 84 1;
#X connect 90 0 92 0;
#X connect 91 0 93 0;
#X connect 92 0 91 0;
#X connect 93 0 94 0;
#X connect 94 0 95 0;
#X connect 95 0 96 0;
#X connect 95 1 97 0;
#X connect 96 0 99 0;
#X connect 96 0 103 0;
#X connect 97 0 101 0;
#X connect 97 0 102 0;
#X connect 98 0 1 0;
#X connect 99 0 98 1;
#X connect 100 0 17 0;
#X connect 101 0 100 1;
#X connect 102 0 99 0;
#X connect 103 0 101 0;
#X connect 104 0 84 0;
#X connect 104 0 90 0;
#X connect 105 0 61 0;
#X connect 105 1 80 0;
