#N canvas 145 107 989 664 10;
#X floatatom 544 525 5 0 0 0 - - -;
#X obj 308 490 makenote 60 10 4000;
#X msg 698 518 1;
#X obj 615 210 bng 15 250 50 0 empty empty empty 17 7 0 10 -262144
-1 -1;
#X obj 642 231 bng 15 250 50 0 empty empty empty 17 7 0 10 -262144
-1 -1;
#X obj 678 253 bng 15 250 50 0 empty empty empty 17 7 0 10 -262144
-1 -1;
#X obj 696 269 bng 15 250 50 0 empty empty empty 17 7 0 10 -262144
-1 -1;
#X obj 724 290 bng 15 250 50 0 empty empty empty 17 7 0 10 -262144
-1 -1;
#X obj 747 310 bng 15 250 50 0 empty empty empty 17 7 0 10 -262144
-1 -1;
#X obj 756 330 bng 15 250 50 0 empty empty empty 17 7 0 10 -262144
-1 -1;
#X obj 768 351 bng 15 250 50 0 empty empty empty 17 7 0 10 -262144
-1 -1;
#X obj 780 373 bng 15 250 50 0 empty empty empty 17 7 0 10 -262144
-1 -1;
#X obj 790 397 bng 15 250 50 0 empty empty empty 17 7 0 10 -262144
-1 -1;
#X obj 803 421 bng 15 250 50 0 empty empty empty 17 7 0 10 -262144
-1 -1;
#X obj 807 440 bng 15 250 50 0 empty empty empty 17 7 0 10 -262144
-1 -1;
#X obj 810 460 bng 15 250 50 0 empty empty empty 17 7 0 10 -262144
-1 -1;
#X obj 812 480 bng 15 250 50 0 empty empty empty 17 7 0 10 -262144
-1 -1;
#X obj 830 505 bng 15 250 50 0 empty empty empty 17 7 0 10 -262144
-1 -1;
#X msg 515 211 60 100 1200;
#X msg 552 235 62 100 1200;
#X msg 588 257 64 100 1200;
#X msg 606 273 65 100 1200;
#X msg 634 294 67 100 1200;
#X msg 657 314 69 100 1200;
#X msg 666 334 71 100 1200;
#X msg 678 355 72 100 1200;
#X msg 690 377 74 100 1200;
#X msg 700 401 76 100 1200;
#X msg 713 425 77 100 1200;
#X msg 717 444 79 100 1200;
#X msg 720 464 81 100 1200;
#X msg 722 484 83 100 1200;
#X msg 740 509 84 100 1200;
#X obj 656 208 delay 1210;
#X obj 683 229 delay 1210;
#X obj 719 251 delay 1210;
#X obj 737 267 delay 1210;
#X obj 765 288 delay 1210;
#X obj 788 308 delay 1210;
#X obj 797 328 delay 1210;
#X obj 809 349 delay 1210;
#X obj 821 371 delay 1210;
#X obj 831 395 delay 1210;
#X obj 844 419 delay 1210;
#X obj 846 437 delay 1210;
#X obj 849 457 delay 1210;
#X obj 848 477 delay 1210;
#X obj 869 502 delay 1210;
#X obj 584 592 noteout 2;
#X obj 779 558 hsl 128 15 0 127 0 0 empty empty empty -2 -8 0 10 -262144
-1 -1 0 1;
#X obj 668 592 ctlout 1 2;
#X obj 790 583 hsl 128 15 -8191 8192 0 0 empty empty empty -2 -8 0
10 -262144 -1 -1 0 1;
#X obj 787 620 bendout 1;
#X obj 416 546 hsl 128 15 0 127 0 0 empty empty empty -2 -8 0 10 -262144
-1 -1 0 1;
#X obj 472 592 ctlout 12 1;
#X msg 670 549 3;
#X msg 627 549 4;
#X msg 230 148 60 100 400;
#X msg 236 177 64 100 400;
#X msg 238 199 67 100 400;
#X msg 236 221 71 100 400;
#X obj 148 200 bng 15 250 50 0 empty empty empty 17 7 0 10 -262144
-1 -1;
#X obj 316 279 makenote 60 10 4000;
#X obj 316 299 makenote 60 10 4000;
#X obj 316 320 makenote 60 10 4000;
#X obj 316 343 makenote 60 10 4000;
#X obj 338 27 vsl 15 128 0 127 0 0 empty empty bass-modu 0 -9 0 10
-262144 -1 -1 0 1;
#X obj 79 50 vsl 15 128 0 127 0 0 empty empty lead-vibe 0 -9 0 10 -262144
-1 -1 0 1;
#X obj 135 144 ctlout 1 17;
#X obj 49 239 vsl 15 128 0 127 0 0 empty empty lead-modu 0 -9 0 10
-262144 -1 -1 1000 1;
#X obj 84 328 ctlout 12 1;
#X msg 155 52 0;
#X msg 652 517 17;
#X msg 725 543 2;
#X msg 636 497 18;
#X obj 547 5 bng 15 250 50 0 empty empty empty 17 7 0 10 -262144 -1
-1;
#X obj 588 3 delay 1210;
#X obj 594 186 bng 15 250 50 0 empty empty empty 17 7 0 10 -262144
-1 -1;
#X obj 635 184 delay 1210;
#X msg 494 187 59 100 1200;
#X obj 587 166 bng 15 250 50 0 empty empty empty 17 7 0 10 -262144
-1 -1;
#X obj 628 164 delay 1210;
#X msg 487 167 57 100 1200;
#X obj 585 148 bng 15 250 50 0 empty empty empty 17 7 0 10 -262144
-1 -1;
#X obj 626 146 delay 1210;
#X msg 485 149 55 100 1200;
#X obj 584 109 bng 15 250 50 0 empty empty empty 17 7 0 10 -262144
-1 -1;
#X obj 616 108 delay 1210;
#X obj 579 92 bng 15 250 50 0 empty empty empty 17 7 0 10 -262144 -1
-1;
#X obj 620 90 delay 1210;
#X msg 479 93 52 100 1200;
#X obj 577 75 bng 15 250 50 0 empty empty empty 17 7 0 10 -262144 -1
-1;
#X obj 618 73 delay 1210;
#X msg 477 76 50 100 1200;
#X obj 570 60 bng 15 250 50 0 empty empty empty 17 7 0 10 -262144 -1
-1;
#X obj 611 58 delay 1210;
#X msg 470 61 48 100 1200;
#X obj 561 42 bng 15 250 50 0 empty empty empty 17 7 0 10 -262144 -1
-1;
#X obj 602 40 delay 1210;
#X msg 461 43 47 100 1200;
#X obj 554 23 bng 15 250 50 0 empty empty empty 17 7 0 10 -262144 -1
-1;
#X obj 595 21 delay 1210;
#X msg 454 24 45 100 1200;
#X msg 607 527 5;
#X msg 605 482 7;
#X msg 605 507 6;
#X msg 484 110 53 100 1200;
#X msg 644 468 33;
#X msg 677 463 34;
#X floatatom 888 642 5 0 0 0 - - -;
#X msg 940 557 0;
#X msg 151 370 60 127 4000;
#X msg 447 6 36 100 1200;
#X obj 63 411 vsl 15 128 36 84 0 0 empty empty empty 0 -9 0 10 -262144
-1 -1 0 1;
#X floatatom 73 567 5 0 0 0 - - -;
#X obj 168 518 int;
#X msg 131 597 \$1 127 1000;
#X obj 147 442 bng 15 250 50 0 empty empty empty 17 7 0 10 -262144
-1 -1;
#X obj 348 172 ctlout 7 17;
#X obj 373 116 ctlout 11 1;
#X connect 0 0 48 0;
#X connect 1 0 0 0;
#X connect 1 1 48 1;
#X connect 2 0 48 2;
#X connect 2 0 50 2;
#X connect 2 0 52 1;
#X connect 3 0 33 0;
#X connect 4 0 34 0;
#X connect 5 0 35 0;
#X connect 6 0 36 0;
#X connect 7 0 37 0;
#X connect 8 0 38 0;
#X connect 9 0 39 0;
#X connect 10 0 40 0;
#X connect 11 0 41 0;
#X connect 12 0 42 0;
#X connect 13 0 43 0;
#X connect 14 0 44 0;
#X connect 15 0 45 0;
#X connect 16 0 46 0;
#X connect 17 0 47 0;
#X connect 18 0 1 0;
#X connect 18 0 3 0;
#X connect 19 0 1 0;
#X connect 19 0 4 0;
#X connect 20 0 5 0;
#X connect 20 0 1 0;
#X connect 21 0 6 0;
#X connect 21 0 1 0;
#X connect 22 0 7 0;
#X connect 22 0 1 0;
#X connect 23 0 8 0;
#X connect 23 0 1 0;
#X connect 24 0 9 0;
#X connect 24 0 1 0;
#X connect 25 0 10 0;
#X connect 25 0 1 0;
#X connect 26 0 11 0;
#X connect 26 0 1 0;
#X connect 27 0 12 0;
#X connect 27 0 1 0;
#X connect 28 0 13 0;
#X connect 28 0 1 0;
#X connect 29 0 14 0;
#X connect 29 0 1 0;
#X connect 30 0 15 0;
#X connect 30 0 1 0;
#X connect 31 0 16 0;
#X connect 31 0 1 0;
#X connect 32 0 17 0;
#X connect 32 0 1 0;
#X connect 33 0 19 0;
#X connect 34 0 20 0;
#X connect 35 0 21 0;
#X connect 36 0 22 0;
#X connect 37 0 23 0;
#X connect 38 0 24 0;
#X connect 39 0 25 0;
#X connect 40 0 26 0;
#X connect 41 0 27 0;
#X connect 42 0 28 0;
#X connect 43 0 29 0;
#X connect 44 0 30 0;
#X connect 45 0 31 0;
#X connect 46 0 32 0;
#X connect 49 0 50 0;
#X connect 51 0 52 0;
#X connect 51 0 109 0;
#X connect 53 0 54 0;
#X connect 55 0 48 2;
#X connect 55 0 50 2;
#X connect 56 0 48 2;
#X connect 56 0 50 2;
#X connect 57 0 62 0;
#X connect 58 0 63 0;
#X connect 59 0 64 0;
#X connect 60 0 65 0;
#X connect 61 0 57 0;
#X connect 61 0 58 0;
#X connect 61 0 59 0;
#X connect 61 0 60 0;
#X connect 62 0 48 0;
#X connect 62 1 48 1;
#X connect 63 0 48 0;
#X connect 63 1 48 1;
#X connect 64 0 48 0;
#X connect 64 1 48 1;
#X connect 65 0 48 0;
#X connect 65 1 48 1;
#X connect 66 0 119 0;
#X connect 67 0 68 0;
#X connect 69 0 70 0;
#X connect 71 0 66 0;
#X connect 71 0 67 0;
#X connect 71 0 69 0;
#X connect 72 0 48 2;
#X connect 72 0 50 2;
#X connect 72 0 52 1;
#X connect 73 0 48 2;
#X connect 73 0 50 2;
#X connect 73 0 52 1;
#X connect 74 0 48 2;
#X connect 74 0 50 2;
#X connect 75 0 76 0;
#X connect 76 0 102 0;
#X connect 77 0 78 0;
#X connect 78 0 18 0;
#X connect 79 0 77 0;
#X connect 79 0 1 0;
#X connect 80 0 81 0;
#X connect 81 0 79 0;
#X connect 82 0 80 0;
#X connect 82 0 1 0;
#X connect 83 0 84 0;
#X connect 84 0 82 0;
#X connect 85 0 83 0;
#X connect 85 0 1 0;
#X connect 86 0 87 0;
#X connect 87 0 85 0;
#X connect 88 0 89 0;
#X connect 89 0 106 0;
#X connect 90 0 88 0;
#X connect 90 0 1 0;
#X connect 91 0 92 0;
#X connect 92 0 90 0;
#X connect 93 0 91 0;
#X connect 93 0 1 0;
#X connect 94 0 95 0;
#X connect 95 0 93 0;
#X connect 96 0 94 0;
#X connect 96 0 1 0;
#X connect 97 0 98 0;
#X connect 98 0 96 0;
#X connect 99 0 97 0;
#X connect 99 0 1 0;
#X connect 100 0 101 0;
#X connect 101 0 99 0;
#X connect 102 0 100 0;
#X connect 102 0 1 0;
#X connect 103 0 48 2;
#X connect 103 0 50 2;
#X connect 104 0 48 2;
#X connect 104 0 50 2;
#X connect 105 0 48 2;
#X connect 105 0 50 2;
#X connect 106 0 86 0;
#X connect 106 0 1 0;
#X connect 107 0 48 2;
#X connect 107 0 52 1;
#X connect 108 0 48 2;
#X connect 110 0 51 0;
#X connect 111 0 1 0;
#X connect 112 0 75 0;
#X connect 112 0 1 0;
#X connect 113 0 115 0;
#X connect 114 0 116 0;
#X connect 115 0 114 0;
#X connect 116 0 1 0;
#X connect 117 0 113 0;
